<svg width="46" height="28" viewBox="0 0 46 28" fill="none" xmlns="http://www.w3.org/2000/svg">
<g clip-path="url(#clip0_559_1748)">
<path d="M16.5714 10.5077C16.8591 10.4139 17.1723 10.4383 17.4421 10.5754C17.7118 10.7126 17.916 10.9513 18.0098 11.239C18.1036 11.5267 18.0792 11.8399 17.942 12.1096C17.8049 12.3794 17.5662 12.5836 17.2785 12.6774C16.9908 12.7712 16.6776 12.7468 16.4078 12.6096C16.1381 12.4725 15.9338 12.2338 15.8401 11.9461C15.7463 11.6584 15.7707 11.3452 15.9078 11.0754C16.045 10.8057 16.2837 10.6014 16.5714 10.5077ZM13.0998 11.639C13.3875 11.5452 13.7007 11.5696 13.9705 11.7068C14.2402 11.8439 14.4445 12.0826 14.5382 12.3703C14.632 12.6581 14.6076 12.9712 14.4705 13.241C14.3333 13.5108 14.0946 13.715 13.8069 13.8087C13.5192 13.9025 13.206 13.8781 12.9362 13.741C12.6665 13.6038 12.4623 13.3652 12.3685 13.0774C12.2747 12.7897 12.2991 12.4765 12.4362 12.2068C12.5734 11.937 12.8121 11.7328 13.0998 11.639ZM11.0666 13.5017C10.9729 13.214 10.7687 12.9753 10.4989 12.8381C10.2291 12.701 9.91595 12.6766 9.62823 12.7704C9.34051 12.8641 9.10181 13.0684 8.96466 13.3381C8.82751 13.6079 8.80314 13.9211 8.89691 14.2088C8.99068 14.4965 9.1949 14.7352 9.46465 14.8723C9.73441 15.0095 10.0476 15.0339 10.3353 14.9401C10.623 14.8463 10.8617 14.6421 10.9989 14.3724C11.136 14.1026 11.1604 13.7894 11.0666 13.5017Z" fill="#EAF6FF"/>
<path fill-rule="evenodd" clip-rule="evenodd" d="M8.15712 8.53989C10.4302 7.57854 12.7767 6.801 15.174 6.21476L15.3458 6.17319C16.4481 5.90377 17.6114 6.06073 18.6029 6.61262C19.5944 7.16452 20.3408 8.07061 20.6926 9.14943L23.1016 16.5413C23.1381 16.6538 23.1449 16.774 23.1212 16.8899C23.0975 17.0059 23.0442 17.1137 22.9664 17.2029C22.8885 17.2921 22.789 17.3596 22.6773 17.3988C22.5656 17.438 22.4457 17.4476 22.3292 17.4266L18.3415 16.7091C18.1556 16.6756 17.9643 16.6888 17.7847 16.7475L9.99449 19.2862C9.01203 19.6064 7.94107 19.1778 7.45009 18.2692C6.45416 16.4269 5.77303 14.4311 5.43358 12.3643L5.33289 11.7548C5.24442 11.2162 5.33959 10.6635 5.6031 10.1855C5.86661 9.70754 6.28316 9.332 6.78582 9.11927L8.15712 8.53989ZM15.4982 7.54537C13.1718 8.114 10.8948 8.86826 8.68903 9.80089L7.31889 10.3809C6.86671 10.5724 6.60342 11.0489 6.68359 11.5336L6.78313 12.1424C7.09848 14.059 7.7308 15.9097 8.65415 17.6186C8.73974 17.7771 8.87821 17.9005 9.04544 17.9674C9.21268 18.0343 9.39808 18.0404 9.56936 17.9847L17.3604 15.4456C17.7549 15.3172 18.175 15.2885 18.5832 15.3621L21.445 15.8772L19.3908 9.57368C19.1461 8.82313 18.627 8.19269 17.9373 7.8086C17.2476 7.42451 16.4383 7.31514 15.6714 7.50237L15.4982 7.54537Z" fill="#EAF6FF"/>
</g>
<g clip-path="url(#clip1_559_1748)">
<path fill-rule="evenodd" clip-rule="evenodd" d="M30.8227 6.13769C33.2433 6.62056 35.6213 7.29677 37.9338 8.15983L39.3278 8.67959C39.8391 8.87055 40.2714 9.22786 40.5552 9.69411C40.839 10.1604 40.9578 10.7085 40.8925 11.2504L40.8181 11.8636C40.5673 13.9429 39.9721 15.9659 39.0568 17.8496C38.8379 18.3 38.468 18.6593 38.0114 18.8649C37.5549 19.0705 37.0407 19.1094 36.5584 18.9749L28.6664 16.7727C28.4844 16.722 28.2934 16.717 28.1093 16.7585L24.155 17.6471C24.0394 17.6731 23.9191 17.6686 23.8058 17.6342C23.6925 17.5997 23.5901 17.5365 23.5085 17.4506C23.4269 17.3647 23.3691 17.2592 23.3405 17.1443C23.312 17.0293 23.3137 16.9089 23.3456 16.7949L25.4351 9.30647C25.7403 8.21354 26.4471 7.27626 27.414 6.68233C28.3809 6.0884 29.5365 5.88166 30.6493 6.10353L30.8227 6.13769ZM29.6073 10.4868C29.3158 10.4054 29.0039 10.4432 28.7403 10.5918C28.4767 10.7404 28.2829 10.9876 28.2016 11.2791C28.1202 11.5706 28.158 11.8825 28.3066 12.1461C28.4552 12.4097 28.7025 12.6035 28.9939 12.6848C29.2854 12.7662 29.5973 12.7284 29.8609 12.5798C30.1245 12.4312 30.3183 12.1839 30.3997 11.8925C30.481 11.601 30.4432 11.2891 30.2946 11.0255C30.146 10.7619 29.8988 10.5681 29.6073 10.4868ZM33.1242 11.4681C32.8327 11.3868 32.5209 11.4246 32.2572 11.5731C31.9936 11.7217 31.7998 11.969 31.7185 12.2605C31.6372 12.5519 31.675 12.8638 31.8236 13.1274C31.9721 13.391 32.2194 13.5848 32.5109 13.6662C32.8024 13.7475 33.1142 13.7097 33.3778 13.5611C33.6414 13.4125 33.8352 13.1653 33.9166 12.8738C33.9979 12.5823 33.9601 12.2705 33.8115 12.0068C33.6629 11.7432 33.4157 11.5494 33.1242 11.4681ZM35.2354 13.2418C35.3168 12.9503 35.5105 12.7031 35.7742 12.5545C36.0378 12.4059 36.3496 12.3681 36.6411 12.4494C36.9326 12.5308 37.1798 12.7246 37.3284 12.9882C37.477 13.2518 37.5148 13.5637 37.4335 13.8551C37.3522 14.1466 37.1584 14.3939 36.8948 14.5425C36.6311 14.6911 36.3193 14.7288 36.0278 14.6475C35.7363 14.5662 35.4891 14.3724 35.3405 14.1088C35.1919 13.8451 35.1541 13.5333 35.2354 13.2418Z" fill="#EAF6FF"/>
</g>
<defs>
<clipPath id="clip0_559_1748">
<rect width="21.9076" height="21.9076" fill="white" transform="matrix(-0.950785 0.309851 0.309851 0.950785 20.8281 0)"/>
</clipPath>
<clipPath id="clip1_559_1748">
<rect width="21.9076" height="21.9076" fill="white" transform="translate(24.9023 0.171387) rotate(15.5909)"/>
</clipPath>
</defs>
</svg>
